# xmcd
#
# Track frame offsets:
#	150
#	14438
#	26698
#	43786
#	55587
#	67960
#	83201
#	96608
#	110186
#	126890
#	140502
#	152048
#	164711
#	179680
#
# Disc length: 2665
#
# Revision: 1
# Processed by: cddbd v1.5.1PL0 Copyright (c) Steve Scherf et al.
# Submitted via: VisiTrax 2.9.5.180 - For more info visit www.synapsa.com
# Normalized: r0:DSETVAR1
#
DISCID=cc0a670e
DTITLE=Various Artist - Mr Music Country 05-03
DYEAR=2003
DGENRE=
TTITLE0=Vernon Oxford - Storms never last
TTITLE1=Chris Hillman/Herb Pedersen - That's the way it was
TTITLE2=Julie Reeves - If I'd never loved you
TTITLE3=Aaron Tippin - What I can't live without
TTITLE4=Curtis Potter - One too many memories
TTITLE5=Marsha Britton - Cool water
TTITLE6=Dusty Owens - You can't find Hank Williams (on the jukebox anymore)
TTITLE7=Keith Whitley - Daddy loves trains
TTITLE8=Flaco Jeminez/Nunie Rubo - No more runnin' around
TTITLE9=Bill and Bonnie Hearne - The king of fools
TTITLE10=Freddy Fender - Before the next teardrop falls
TTITLE11=Arkey Blue/Willie Nelson/Darrell McCall - There's still country music in Texas
TTITLE12=Jerry Kilgore - Love trip
TTITLE13=Chieftains/Martina McBride - I'll be all smiles tonight
EXTD=
EXTT0=
EXTT1=
EXTT2=
EXTT3=
EXTT4=
EXTT5=
EXTT6=
EXTT7=
EXTT8=
EXTT9=
EXTT10=
EXTT11=
EXTT12=
EXTT13=
PLAYORDER=
